<svg width="94" height="46" viewBox="0 0 94 46" fill="none" xmlns="http://www.w3.org/2000/svg">
<g clip-path="url(#clip0_178_103962)">
<path d="M43.8774 36.193C43.0677 37.1759 42.0656 37.9782 40.9344 38.5494C39.8481 39.0832 38.655 39.3563 37.4476 39.3475C35.3467 39.3475 33.6234 38.5468 32.2777 36.9455C30.932 35.3442 30.2587 33.2655 30.2578 30.7094C30.2578 27.5067 31.1694 24.8474 32.9925 22.7314C34.8157 20.6153 37.0918 19.5578 39.821 19.5586C41.0032 19.5387 42.1723 19.8127 43.2256 20.3567C44.2284 20.8896 45.134 21.712 45.9423 22.8238L46.3589 20.1458H52.4802L50.2379 34.4797C50.0554 35.6469 49.4677 36.7098 48.5803 37.4773C47.6929 38.2449 46.5642 38.6666 45.3972 38.6666H43.5714L43.8774 36.193ZM36.7571 30.065C36.7571 31.2506 37.1133 32.2053 37.8256 32.9291C38.5379 33.653 39.4807 34.0136 40.6541 34.011C41.9339 34.011 42.9993 33.5067 43.8504 32.4982C44.7016 31.4897 45.1272 30.2273 45.1272 28.711C45.1272 27.5618 44.771 26.6297 44.0587 25.9145C43.3464 25.1993 42.4169 24.8413 41.27 24.8404C40.6568 24.8277 40.0486 24.9542 39.4902 25.2108C38.9317 25.4675 38.4371 25.8476 38.0428 26.3233C37.1857 27.3145 36.7571 28.5617 36.7571 30.065Z" fill="#E73C2A"/>
<path d="M67.1016 38.6667L69.9983 20.1432H76.1929L75.7377 23.3042C76.3052 22.1317 77.0659 21.239 78.0199 20.6262C78.9739 20.0135 80.0848 19.7097 81.3525 19.7149C81.5037 19.716 81.6548 19.7251 81.8051 19.7423C81.9748 19.7605 82.2396 19.8008 82.6022 19.862L81.3165 25.675C80.8939 25.5778 80.5133 25.5045 80.1748 25.455C79.8511 25.4077 79.5246 25.3833 79.1976 25.3821C77.953 25.3821 76.9716 25.7766 76.2533 26.5655C75.535 27.3545 75.043 28.5739 74.7773 30.2238L74.0573 34.8925C73.8947 35.9479 73.3647 36.9096 72.563 37.6039C71.7613 38.2982 70.7408 38.6793 69.6859 38.6784L67.1016 38.6667Z" fill="#E73C2A"/>
<path d="M82.8711 38.666L85.7511 20.1426H92.253L90.021 34.4101C89.8352 35.5966 89.2375 36.677 88.3353 37.4572C87.4331 38.2373 86.2856 38.6659 85.0992 38.666H82.8711Z" fill="#E73C2A"/>
<path d="M86.2426 14.6226C86.244 13.6988 86.6071 12.8132 87.2523 12.1601C87.8975 11.507 88.7722 11.1397 89.6845 11.1387C90.6856 11.1387 91.5188 11.4685 92.1839 12.1281C92.5111 12.4517 92.7686 12.8403 92.9401 13.2697C93.1116 13.699 93.1934 14.1596 93.1803 14.6226C93.1846 15.0886 93.0971 15.5509 92.923 15.9823C92.7488 16.4138 92.4915 16.8057 92.166 17.1353C91.8405 17.4649 91.4534 17.7255 91.0273 17.9018C90.6013 18.0782 90.1447 18.1668 89.6845 18.1624C89.2293 18.1692 88.7776 18.0801 88.3582 17.9008C87.9388 17.7215 87.5607 17.4559 87.248 17.1209C86.923 16.7944 86.6665 16.4048 86.4937 15.9755C86.321 15.5462 86.2355 15.0861 86.2426 14.6226Z" fill="#E73C2A"/>
<path d="M64.6687 19.0195H58.2491L58.0781 20.1431H55.0361L54.293 24.8755H57.3363L55.1801 38.6665H57.704C58.7922 38.6665 59.8447 38.2731 60.6719 37.557C61.499 36.841 62.0465 35.8493 62.2156 34.7608L63.7469 24.8768H67.0255L67.7686 20.1444H64.49L64.6687 19.0195Z" fill="#E73C2A"/>
<path d="M65.342 14.7705H58.8941L58.25 19.0199H64.6683L65.342 14.7705Z" fill="#E73C2A"/>
<path d="M14.6255 4.27925C14.6184 3.7335 14.7211 3.192 14.9273 2.68773C15.1335 2.18346 15.439 1.72697 15.825 1.34607C16.2005 0.950162 16.6525 0.636913 17.1529 0.425899C17.6533 0.214886 18.1913 0.110642 18.7333 0.119682C19.929 0.119682 20.9233 0.513724 21.7162 1.30181C22.5091 2.08989 22.9055 3.08237 22.9055 4.27925C22.9159 4.83561 22.8139 5.38826 22.6056 5.9032C22.3973 6.41815 22.0872 6.88451 21.6943 7.27362C21.3101 7.67142 20.8495 7.98543 20.341 8.19634C19.8324 8.40724 19.2866 8.51058 18.7372 8.50001C18.1943 8.50865 17.6556 8.4032 17.155 8.19032C16.6544 7.97744 16.2029 7.66175 15.8289 7.2632C15.4402 6.87351 15.1333 6.40833 14.9265 5.89558C14.7197 5.38282 14.6173 4.83305 14.6255 4.27925Z" fill="#E73C2A"/>
<path d="M4.18705 26.7412C3.68433 26.8128 3.26904 26.8714 2.89233 27.0784C2.52713 27.2481 2.21381 27.5143 1.98531 27.849C1.75681 28.1837 1.62155 28.5746 1.59375 28.9805L3.09676 40.5856L3.45804 43.5162C3.47165 43.7049 3.50659 43.8914 3.56219 44.0721C3.60772 44.2173 3.67399 44.3551 3.7589 44.4809C3.92913 44.7345 4.16422 44.9366 4.43905 45.0654C4.73042 45.2 5.04788 45.2667 5.36807 45.2606C5.68825 45.2545 6.00302 45.1758 6.2892 45.0303C6.55109 44.9042 6.77362 44.7075 6.93238 44.4618C7.09114 44.216 7.18 43.9308 7.1892 43.6373L5.9652 32.0608L5.83663 30.8149L7.07477 30.6847L14.2131 29.9152L15.999 29.7343C16.4986 29.6918 16.9918 29.5909 17.4685 29.4335C18.3261 29.1263 18.7864 28.6251 19.1104 27.6786C19.4048 26.7972 19.5437 25.4745 19.7854 24.3145L20.4154 20.7343L21.6767 13.5738L21.993 11.8123C22.0828 11.3397 22.0867 10.8544 22.0046 10.3803C21.9804 10.2067 21.9189 10.0407 21.8245 9.89379C21.7301 9.74691 21.605 9.62277 21.4581 9.53011C21.1547 9.33873 20.6777 9.245 20.1724 9.23328C18.0548 9.20073 15.8292 10.0951 14.4291 11.8123C13.7106 12.6709 13.1913 13.6817 12.9094 14.7703C12.7792 15.3564 12.6835 15.9498 12.6227 16.5473L12.3784 18.3856L11.4038 25.5278C9.4945 25.9731 7.56078 26.2113 5.63863 26.5212L4.18705 26.7412Z" fill="#E73C2A"/>
<path d="M31.0866 10.2959H24.9448L24.2659 14.6364L24.2158 14.9541L23.7606 17.7753C23.1962 21.2904 22.6125 24.9201 22.0005 28.4925C21.6147 30.7513 19.9433 32.3188 17.629 32.5857C16.4269 32.725 14.9174 32.8943 9.55469 33.0479L10.996 39.2684C15.2903 39.2475 17.5159 38.84 18.0482 38.7593C23.515 37.9287 27.0238 34.8627 27.9276 30.1264C28.6991 26.1049 29.3226 22.0013 29.9398 17.9615C30.1455 16.6136 30.3534 15.2652 30.5634 13.9165C30.5736 13.8553 30.5698 13.798 30.5762 13.7381L31.0866 10.2959Z" fill="#E73C2A"/>
</g>
<defs>
<clipPath id="clip0_178_103962">
<rect width="93" height="46" fill="white" transform="translate(0.5)"/>
</clipPath>
</defs>
</svg>
