<svg width="138" height="68" viewBox="0 0 138 68" fill="none" xmlns="http://www.w3.org/2000/svg">
<g clip-path="url(#clip0_178_110582)">
<path d="M64.366 53.2156C63.1645 54.6472 61.6775 55.8158 59.999 56.6478C58.387 57.4252 56.6165 57.823 54.8249 57.8102C51.7075 57.8102 49.1503 56.644 47.1535 54.3117C45.1566 51.9793 44.1575 48.9516 44.1562 45.2287C44.1562 40.5639 45.5089 36.6905 48.2142 33.6085C50.9196 30.5264 54.2971 28.9861 58.3468 28.9873C60.1011 28.9583 61.8358 29.3574 63.3988 30.1497C64.8869 30.9259 66.2306 32.1237 67.43 33.7431L68.0482 29.8425H77.1314L73.8041 50.7202C73.5334 52.4202 72.6612 53.9684 71.3444 55.0863C70.0277 56.2042 68.3528 56.8184 66.6211 56.8185H63.912L64.366 53.2156ZM53.8004 44.29C53.8004 46.0169 54.3289 47.4074 55.3858 48.4617C56.4428 49.5161 57.8418 50.0413 59.5831 50.0375C61.482 50.0375 63.063 49.303 64.326 47.8341C65.589 46.3651 66.2205 44.5264 66.2205 42.3179C66.2205 40.6442 65.692 39.2865 64.635 38.2448C63.5781 37.2031 62.1987 36.6816 60.4969 36.6804C59.5871 36.6618 58.6846 36.8461 57.8559 37.2199C57.0271 37.5937 56.2933 38.1473 55.7082 38.8402C54.4363 40.2839 53.8004 42.1005 53.8004 44.29Z" fill="#E73C2A"/>
<path d="M98.8281 56.8186L103.127 29.8388H112.318L111.643 34.4429C112.485 32.735 113.614 31.4348 115.03 30.5423C116.445 29.6498 118.094 29.2074 119.975 29.2149C120.199 29.2165 120.423 29.2298 120.646 29.2548C120.898 29.2813 121.291 29.3401 121.829 29.4292L119.921 37.8959C119.294 37.7544 118.729 37.6475 118.227 37.5755C117.747 37.5065 117.262 37.4711 116.777 37.4693C114.93 37.4693 113.474 38.0439 112.408 39.193C111.342 40.3421 110.612 42.1182 110.218 44.5214L109.15 51.3214C108.908 52.8586 108.122 54.2594 106.932 55.2707C105.743 56.282 104.228 56.837 102.663 56.8356L98.8281 56.8186Z" fill="#E73C2A"/>
<path d="M122.23 56.8186L126.504 29.8389H136.152L132.84 50.6198C132.564 52.348 131.677 53.9217 130.339 55.058C129 56.1942 127.297 56.8186 125.537 56.8186H122.23Z" fill="#E73C2A"/>
<path d="M127.227 21.7985C127.229 20.453 127.768 19.1632 128.725 18.2119C129.683 17.2607 130.981 16.7256 132.334 16.7241C133.82 16.7241 135.056 17.2045 136.043 18.1653C136.529 18.6365 136.911 19.2026 137.165 19.828C137.42 20.4533 137.541 21.1242 137.522 21.7985C137.528 22.4773 137.398 23.1506 137.14 23.779C136.882 24.4074 136.5 24.9783 136.017 25.4583C135.534 25.9384 134.959 26.3179 134.327 26.5748C133.695 26.8316 133.017 26.9607 132.334 26.9544C131.659 26.9642 130.989 26.8344 130.366 26.5733C129.744 26.3121 129.183 25.9253 128.719 25.4374C128.237 24.9618 127.856 24.3944 127.6 23.7691C127.343 23.1438 127.217 22.4736 127.227 21.7985Z" fill="#E73C2A"/>
<path d="M95.2166 28.2021H85.6907L85.437 29.8386H80.923L79.8203 36.7315H84.3362L81.1367 56.8184H84.8818C86.4966 56.8184 88.0584 56.2454 89.2858 55.2024C90.5132 54.1594 91.3255 52.7151 91.5764 51.1296L93.8487 36.7334H98.7137L99.8164 29.8405H94.9514L95.2166 28.2021Z" fill="#E73C2A"/>
<path d="M96.2151 22.0127H86.6472L85.6914 28.202H95.2154L96.2151 22.0127Z" fill="#E73C2A"/>
<path d="M20.9577 6.73312C20.9472 5.93822 21.0996 5.14951 21.4056 4.41503C21.7116 3.68055 22.1649 3.01567 22.7377 2.46088C23.2948 1.88423 23.9656 1.42798 24.7082 1.12063C25.4507 0.813283 26.249 0.66145 27.0533 0.674617C28.8276 0.674617 30.303 1.24855 31.4795 2.39641C32.656 3.54427 33.2442 4.98984 33.2442 6.73312C33.2597 7.54347 33.1083 8.34841 32.7992 9.09844C32.4901 9.84847 32.03 10.5277 31.447 11.0945C30.8768 11.6739 30.1934 12.1313 29.4388 12.4384C28.6842 12.7456 27.8743 12.8961 27.059 12.8807C26.2534 12.8933 25.454 12.7397 24.7112 12.4297C23.9684 12.1196 23.2984 11.6598 22.7434 11.0793C22.1667 10.5117 21.7112 9.83417 21.4044 9.08733C21.0975 8.34049 20.9456 7.53974 20.9577 6.73312Z" fill="#E73C2A"/>
<path d="M5.46921 39.4487C4.72325 39.553 4.10701 39.6383 3.54802 39.9399C3.0061 40.1871 2.54119 40.5748 2.20212 41.0623C1.86305 41.5498 1.66235 42.119 1.62109 42.7103L3.85136 59.6134L4.38747 63.8818C4.40765 64.1567 4.4595 64.4284 4.542 64.6915C4.60956 64.9031 4.7079 65.1037 4.8339 65.2869C5.0865 65.6564 5.43534 65.9507 5.84315 66.1384C6.27551 66.3343 6.74658 66.4315 7.22169 66.4226C7.69681 66.4138 8.16388 66.2991 8.58854 66.0872C8.97715 65.9035 9.30735 65.617 9.54293 65.2591C9.77851 64.9011 9.91036 64.4857 9.92403 64.0582L8.10776 47.1968L7.91698 45.3821L9.75423 45.1924L20.3466 44.0718L22.9966 43.8082C23.738 43.7463 24.4698 43.5993 25.1772 43.3702C26.4498 42.9226 27.1328 42.1926 27.6135 40.814C28.0504 39.5303 28.2565 37.6037 28.6152 35.9141L29.55 30.6994L31.4216 20.2701L31.8909 17.7045C32.0242 17.016 32.03 16.3092 31.9081 15.6186C31.8722 15.3659 31.781 15.124 31.6409 14.9101C31.5008 14.6961 31.3153 14.5153 31.0973 14.3804C30.647 14.1016 29.9392 13.9651 29.1894 13.948C26.0472 13.9006 22.7447 15.2033 20.6671 17.7045C19.6009 18.955 18.8303 20.4272 18.412 22.0128C18.2189 22.8664 18.0769 23.7307 17.9866 24.6011L17.6241 27.2786L16.1779 37.6814C13.3448 38.3299 10.4754 38.677 7.62317 39.1283L5.46921 39.4487Z" fill="#E73C2A"/>
<path d="M45.3842 15.4956H36.2705L35.2631 21.8177L35.1887 22.2804L34.5133 26.3895C33.6758 31.5094 32.8096 36.7961 31.9015 41.9994C31.3292 45.2894 28.849 47.5725 25.4148 47.9612C23.631 48.1641 21.3912 48.4106 13.4336 48.6344L15.5723 57.6946C21.9445 57.6643 25.247 57.0708 26.0368 56.9532C34.149 55.7434 39.3555 51.2777 40.6967 44.3792C41.8414 38.5217 42.7667 32.5447 43.6824 26.6607C43.9877 24.6974 44.2961 22.7336 44.6077 20.7691C44.623 20.6799 44.6173 20.5965 44.6268 20.5093L45.3842 15.4956Z" fill="#E73C2A"/>
</g>
<defs>
<clipPath id="clip0_178_110582">
<rect width="138" height="67" fill="white" transform="translate(0 0.5)"/>
</clipPath>
</defs>
</svg>
