<svg width="172" height="80" viewBox="0 0 172 80" fill="none" xmlns="http://www.w3.org/2000/svg">
<rect width="172" height="80" rx="2.68731" fill="#F7F7F7"/>
<line x1="86.5" y1="-2.18557e-08" x2="86.5" y2="80" stroke="#B6B6B6" stroke-dasharray="1 1"/>
<rect x="10" y="11" width="16" height="5" rx="2.5" fill="#DBDBDB"/>
<rect x="96" y="11" width="16" height="5" rx="2.5" fill="#DBDBDB"/>
<rect x="32" y="11" width="46" height="5" rx="2.5" fill="#DBDBDB"/>
<rect x="118" y="11" width="46" height="5" rx="2.5" fill="#DBDBDB"/>
<rect x="10" y="24" width="16" height="5" rx="2.5" fill="#DBDBDB"/>
<rect x="96" y="24" width="16" height="5" rx="2.5" fill="#DBDBDB"/>
<rect x="32" y="24" width="41" height="5" rx="2.5" fill="#DBDBDB"/>
<rect x="118" y="24" width="41" height="5" rx="2.5" fill="#DBDBDB"/>
<rect x="10" y="37" width="16" height="5" rx="2.5" fill="#DBDBDB"/>
<rect x="96" y="37" width="16" height="5" rx="2.5" fill="#DBDBDB"/>
<rect x="32" y="37" width="17" height="5" rx="2.5" fill="#DBDBDB"/>
<rect x="118" y="37" width="17" height="5" rx="2.5" fill="#DBDBDB"/>
<rect x="10" y="50" width="16" height="5" rx="2.5" fill="#DBDBDB"/>
<rect x="96" y="50" width="16" height="5" rx="2.5" fill="#DBDBDB"/>
<rect x="32" y="50" width="42" height="5" rx="2.5" fill="#DBDBDB"/>
<rect x="118" y="50" width="42" height="5" rx="2.5" fill="#DBDBDB"/>
<rect x="10" y="63" width="16" height="5" rx="2.5" fill="#DBDBDB"/>
<rect x="96" y="63" width="16" height="5" rx="2.5" fill="#DBDBDB"/>
<rect x="32" y="63" width="29" height="5" rx="2.5" fill="#DBDBDB"/>
<rect x="118" y="63" width="29" height="5" rx="2.5" fill="#DBDBDB"/>
</svg>
