<svg width="172" height="80" viewBox="0 0 172 80" fill="none" xmlns="http://www.w3.org/2000/svg">
<rect width="172" height="80" rx="2.68731" fill="#F7F7F7"/>
<rect x="5" y="11" width="10" height="5" rx="2.5" fill="#DBDBDB"/>
<rect x="19" y="11" width="21" height="5" rx="2.5" fill="#DBDBDB"/>
<rect x="5" y="24" width="10" height="5" rx="2.5" fill="#DBDBDB"/>
<rect x="19" y="24" width="15" height="5" rx="2.5" fill="#DBDBDB"/>
<rect x="5" y="37" width="10" height="5" rx="2.5" fill="#DBDBDB"/>
<rect x="19" y="37" width="18" height="5" rx="2.5" fill="#DBDBDB"/>
<rect x="5" y="50" width="10" height="5" rx="2.5" fill="#DBDBDB"/>
<rect x="19" y="50" width="13" height="5" rx="2.5" fill="#DBDBDB"/>
<rect x="5" y="63" width="10" height="5" rx="2.5" fill="#DBDBDB"/>
<rect x="19" y="63" width="19" height="5" rx="2.5" fill="#DBDBDB"/>
<rect x="132" y="11" width="10" height="5" rx="2.5" fill="#DBDBDB"/>
<rect x="146" y="11" width="21" height="5" rx="2.5" fill="#DBDBDB"/>
<rect x="132" y="24" width="10" height="5" rx="2.5" fill="#DBDBDB"/>
<rect x="146" y="24" width="15" height="5" rx="2.5" fill="#DBDBDB"/>
<rect x="132" y="37" width="10" height="5" rx="2.5" fill="#DBDBDB"/>
<rect x="146" y="37" width="18" height="5" rx="2.5" fill="#DBDBDB"/>
<rect x="132" y="50" width="10" height="5" rx="2.5" fill="#DBDBDB"/>
<rect x="146" y="50" width="13" height="5" rx="2.5" fill="#DBDBDB"/>
<rect x="132" y="63" width="10" height="5" rx="2.5" fill="#DBDBDB"/>
<rect x="146" y="63" width="19" height="5" rx="2.5" fill="#DBDBDB"/>
<rect x="54" y="11" width="18.2861" height="5" rx="2.5" fill="#DBDBDB"/>
<rect x="79.6016" y="11" width="38.4009" height="5" rx="2.5" fill="#DBDBDB"/>
<rect x="54" y="24" width="18.2861" height="5" rx="2.5" fill="#DBDBDB"/>
<rect x="80" y="24" width="32" height="5" rx="2.5" fill="#DBDBDB"/>
<rect x="54" y="37" width="18.2861" height="5" rx="2.5" fill="#DBDBDB"/>
<rect x="79.6016" y="37" width="32.9151" height="5" rx="2.5" fill="#DBDBDB"/>
<rect x="54" y="50" width="18.2861" height="5" rx="2.5" fill="#DBDBDB"/>
<rect x="80" y="50" width="35" height="5" rx="2.5" fill="#DBDBDB"/>
<rect x="54" y="63" width="18.2861" height="5" rx="2.5" fill="#DBDBDB"/>
<rect x="80" y="63" width="35" height="5" rx="2.5" fill="#DBDBDB"/>
<line x1="46.5" y1="-2.18557e-08" x2="46.5" y2="80" stroke="#B6B6B6" stroke-dasharray="1 1"/>
<line x1="126.5" y1="-2.18557e-08" x2="126.5" y2="80" stroke="#B6B6B6" stroke-dasharray="1 1"/>
</svg>
