<svg width="172" height="80" viewBox="0 0 172 80" fill="none" xmlns="http://www.w3.org/2000/svg">
<rect width="172" height="80" rx="4" fill="#F7F7F7"/>
<line x1="128.5" y1="-2.18557e-08" x2="128.5" y2="80" stroke="#B6B6B6" stroke-dasharray="1 1"/>
<line x1="44.5" y1="-2.18557e-08" x2="44.5" y2="80" stroke="#B6B6B6" stroke-dasharray="1 1"/>
<rect x="5" y="11" width="10" height="5" rx="2.5" fill="#DBDBDB"/>
<rect x="19" y="11" width="21" height="5" rx="2.5" fill="#DBDBDB"/>
<rect x="5" y="24" width="10" height="5" rx="2.5" fill="#DBDBDB"/>
<rect x="19" y="24" width="15" height="5" rx="2.5" fill="#DBDBDB"/>
<rect x="5" y="37" width="10" height="5" rx="2.5" fill="#DBDBDB"/>
<rect x="19" y="37" width="18" height="5" rx="2.5" fill="#DBDBDB"/>
<rect x="5" y="50" width="10" height="5" rx="2.5" fill="#DBDBDB"/>
<rect x="19" y="50" width="13" height="5" rx="2.5" fill="#DBDBDB"/>
<rect x="5" y="63" width="10" height="5" rx="2.5" fill="#DBDBDB"/>
<rect x="19" y="63" width="19" height="5" rx="2.5" fill="#DBDBDB"/>
<rect x="48" y="11" width="10" height="5" rx="2.5" fill="#DBDBDB"/>
<rect x="62" y="11" width="21" height="5" rx="2.5" fill="#DBDBDB"/>
<rect x="48" y="24" width="10" height="5" rx="2.5" fill="#DBDBDB"/>
<rect x="62" y="24" width="15" height="5" rx="2.5" fill="#DBDBDB"/>
<rect x="48" y="37" width="10" height="5" rx="2.5" fill="#DBDBDB"/>
<rect x="62" y="37" width="18" height="5" rx="2.5" fill="#DBDBDB"/>
<rect x="48" y="50" width="10" height="5" rx="2.5" fill="#DBDBDB"/>
<rect x="62" y="50" width="13" height="5" rx="2.5" fill="#DBDBDB"/>
<rect x="48" y="63" width="10" height="5" rx="2.5" fill="#DBDBDB"/>
<rect x="62" y="63" width="19" height="5" rx="2.5" fill="#DBDBDB"/>
<rect x="89" y="11" width="10" height="5" rx="2.5" fill="#DBDBDB"/>
<rect x="103" y="11" width="21" height="5" rx="2.5" fill="#DBDBDB"/>
<rect x="89" y="24" width="10" height="5" rx="2.5" fill="#DBDBDB"/>
<rect x="103" y="24" width="15" height="5" rx="2.5" fill="#DBDBDB"/>
<rect x="89" y="37" width="10" height="5" rx="2.5" fill="#DBDBDB"/>
<rect x="103" y="37" width="18" height="5" rx="2.5" fill="#DBDBDB"/>
<rect x="89" y="50" width="10" height="5" rx="2.5" fill="#DBDBDB"/>
<rect x="103" y="50" width="13" height="5" rx="2.5" fill="#DBDBDB"/>
<rect x="89" y="63" width="10" height="5" rx="2.5" fill="#DBDBDB"/>
<rect x="103" y="63" width="19" height="5" rx="2.5" fill="#DBDBDB"/>
<rect x="133" y="11" width="10" height="5" rx="2.5" fill="#DBDBDB"/>
<rect x="147" y="11" width="21" height="5" rx="2.5" fill="#DBDBDB"/>
<rect x="133" y="24" width="10" height="5" rx="2.5" fill="#DBDBDB"/>
<rect x="147" y="24" width="15" height="5" rx="2.5" fill="#DBDBDB"/>
<rect x="133" y="37" width="10" height="5" rx="2.5" fill="#DBDBDB"/>
<rect x="147" y="37" width="18" height="5" rx="2.5" fill="#DBDBDB"/>
<rect x="133" y="50" width="10" height="5" rx="2.5" fill="#DBDBDB"/>
<rect x="147" y="50" width="13" height="5" rx="2.5" fill="#DBDBDB"/>
<rect x="133" y="63" width="10" height="5" rx="2.5" fill="#DBDBDB"/>
<rect x="147" y="63" width="19" height="5" rx="2.5" fill="#DBDBDB"/>
</svg>
