<svg width="13" height="14" viewBox="0 0 13 14" fill="none" xmlns="http://www.w3.org/2000/svg">
<path d="M3.16667 3.00065V1.00065C3.16667 0.82384 3.2369 0.654271 3.36193 0.529246C3.48695 0.404222 3.65652 0.333984 3.83333 0.333984H11.8333C12.0101 0.333984 12.1797 0.404222 12.3047 0.529246C12.4298 0.654271 12.5 0.82384 12.5 1.00065V10.334C12.5 10.5108 12.4298 10.6804 12.3047 10.8054C12.1797 10.9304 12.0101 11.0007 11.8333 11.0007H9.83333V13.0007C9.83333 13.3687 9.53333 13.6673 9.162 13.6673H1.17133C1.08342 13.6678 0.996265 13.651 0.914882 13.6177C0.833498 13.5845 0.759489 13.5355 0.697106 13.4735C0.634723 13.4116 0.585195 13.3379 0.55137 13.2568C0.517544 13.1756 0.500086 13.0886 0.5 13.0007L0.502 3.66732C0.502 3.29932 0.802 3.00065 1.17333 3.00065H3.16667ZM4.5 3.00065H9.83333V9.66732H11.1667V1.66732H4.5V3.00065ZM3.16667 6.33398V7.66732H7.16667V6.33398H3.16667ZM3.16667 9.00065V10.334H7.16667V9.00065H3.16667Z" fill="#151414"/>
</svg>
