<svg width="14" height="14" viewBox="0 0 14 14" fill="none" xmlns="http://www.w3.org/2000/svg">
<path d="M11.0194 10.0806L13.8747 12.9353L12.9314 13.8786L10.0767 11.0233C9.01452 11.8748 7.69337 12.3379 6.33203 12.3359C3.02003 12.3359 0.332031 9.64794 0.332031 6.33594C0.332031 3.02394 3.02003 0.335938 6.33203 0.335938C9.64403 0.335938 12.332 3.02394 12.332 6.33594C12.334 7.69727 11.8708 9.01843 11.0194 10.0806ZM9.68203 9.58594C10.5281 8.71586 11.0006 7.54956 10.9987 6.33594C10.9987 3.75727 8.91003 1.66927 6.33203 1.66927C3.75336 1.66927 1.66536 3.75727 1.66536 6.33594C1.66536 8.91394 3.75336 11.0026 6.33203 11.0026C7.54565 11.0045 8.71196 10.532 9.58203 9.68594L9.68203 9.58594Z" fill="#F04935"/>
</svg>
