<svg width="18" height="18" viewBox="0 0 18 18" fill="none" xmlns="http://www.w3.org/2000/svg">
<path d="M6.5013 0.833008V2.49967H11.5013V0.833008H13.168V2.49967H16.5013C16.7223 2.49967 16.9343 2.58747 17.0906 2.74375C17.2468 2.90003 17.3346 3.11199 17.3346 3.33301V16.6663C17.3346 16.8874 17.2468 17.0993 17.0906 17.2556C16.9343 17.4119 16.7223 17.4997 16.5013 17.4997H1.5013C1.28029 17.4997 1.06833 17.4119 0.912046 17.2556C0.755766 17.0993 0.667969 16.8874 0.667969 16.6663V3.33301C0.667969 3.11199 0.755766 2.90003 0.912046 2.74375C1.06833 2.58747 1.28029 2.49967 1.5013 2.49967H4.83464V0.833008H6.5013ZM15.668 8.33301H2.33464V15.833H15.668V8.33301ZM11.5313 9.27967L12.7096 10.458L8.58464 14.583L5.63797 11.6363L6.81797 10.458L8.58547 12.2263L11.5321 9.27967H11.5313ZM4.83464 4.16634H2.33464V6.66634H15.668V4.16634H13.168V4.99967H11.5013V4.16634H6.5013V4.99967H4.83464V4.16634Z" fill="#6D6D6D"/>
</svg>
