<svg width="17" height="18" viewBox="0 0 17 18" fill="none" xmlns="http://www.w3.org/2000/svg">
<path d="M13.8333 5.66699H15.5C15.721 5.66699 15.933 5.75479 16.0893 5.91107C16.2455 6.06735 16.3333 6.27931 16.3333 6.50033V16.5003C16.3333 16.7213 16.2455 16.9333 16.0893 17.0896C15.933 17.2459 15.721 17.3337 15.5 17.3337H8.83333C8.61232 17.3337 8.40036 17.2459 8.24408 17.0896C8.0878 16.9333 8 16.7213 8 16.5003V15.667H1.33333C1.11232 15.667 0.900358 15.5792 0.744078 15.4229C0.587797 15.2666 0.5 15.0547 0.5 14.8337V1.50033C0.5 1.27931 0.587797 1.06735 0.744078 0.91107C0.900358 0.75479 1.11232 0.666992 1.33333 0.666992H13C13.221 0.666992 13.433 0.75479 13.5893 0.91107C13.7455 1.06735 13.8333 1.27931 13.8333 1.50033V5.66699ZM12.1667 5.66699V2.33366H2.16667V14.0003H8V6.50033C8 6.27931 8.0878 6.06735 8.24408 5.91107C8.40036 5.75479 8.61232 5.66699 8.83333 5.66699H12.1667ZM9.66667 7.33366V15.667H14.6667V7.33366H9.66667Z" fill="#6D6D6D"/>
</svg>
