<svg width="20" height="17" viewBox="0 0 20 17" fill="none" xmlns="http://www.w3.org/2000/svg">
<path d="M0.832032 11.0835C0.831519 10.1631 1.06572 9.25771 1.51249 8.45296C1.95927 7.64821 2.60386 6.97067 3.38537 6.48438C3.59163 4.87612 4.37686 3.39813 5.59413 2.32701C6.8114 1.25589 8.37727 0.665039 9.9987 0.665039C11.6201 0.665039 13.186 1.25589 14.4033 2.32701C15.6205 3.39813 16.4058 4.87612 16.612 6.48438C17.5814 7.08745 18.3354 7.98138 18.7664 9.03853C19.1975 10.0957 19.2835 11.262 19.0122 12.3709C18.7408 13.4798 18.1261 14.4747 17.2557 15.2134C16.3852 15.9522 15.3037 16.397 14.1654 16.4844L5.83203 16.5002C3.03537 16.2719 0.832032 13.9352 0.832032 11.0835ZM14.0387 14.8227C14.8269 14.7621 15.5758 14.454 16.1784 13.9423C16.781 13.4307 17.2065 12.7417 17.3941 11.9737C17.5817 11.2058 17.5218 10.3982 17.223 9.66636C16.9243 8.93449 16.4018 8.31576 15.7304 7.89854L15.0579 7.47938L14.9579 6.69438C14.8021 5.48912 14.2128 4.38182 13.3 3.57945C12.3873 2.77708 11.2136 2.33453 9.99828 2.33453C8.783 2.33453 7.6093 2.77708 6.69655 3.57945C5.7838 4.38182 5.19447 5.48912 5.0387 6.69438L4.9387 7.47938L4.26787 7.89854C3.59645 8.31571 3.07402 8.93437 2.7752 9.66617C2.47637 10.398 2.41644 11.2055 2.60395 11.9734C2.79147 12.7413 3.21684 13.4303 3.81932 13.942C4.4218 14.4537 5.17057 14.762 5.9587 14.8227L6.10287 14.8335H13.8945L14.0387 14.8227ZM10.832 9.83354V13.1669H9.16537V9.83354H6.66537L9.9987 5.66688L13.332 9.83354H10.832Z" fill="#1E88E5"/>
</svg>
