<svg width="12" height="12" viewBox="0 0 12 12" fill="none" xmlns="http://www.w3.org/2000/svg">
<path d="M10 10.6667H10.6667V2.552L9.448 1.33333H8.66667V4H2.66667V1.33333H1.33333V10.6667H2V6H10V10.6667ZM0.666667 0H10L11.8047 1.80467C11.9297 1.92966 12 2.0992 12 2.276V11.3333C12 11.5101 11.9298 11.6797 11.8047 11.8047C11.6797 11.9298 11.5101 12 11.3333 12H0.666667C0.489856 12 0.320286 11.9298 0.195262 11.8047C0.0702379 11.6797 0 11.5101 0 11.3333V0.666667C0 0.489856 0.0702379 0.320286 0.195262 0.195262C0.320286 0.0702379 0.489856 0 0.666667 0ZM3.33333 7.33333V10.6667H8.66667V7.33333H3.33333Z" fill="#48A43F"/>
</svg>
