<svg width="20" height="20" viewBox="0 0 20 20" fill="none" xmlns="http://www.w3.org/2000/svg">
<path d="M15.8333 8.33268H16.6667C16.8877 8.33268 17.0996 8.42048 17.2559 8.57676C17.4122 8.73304 17.5 8.945 17.5 9.16602V17.4993C17.5 17.7204 17.4122 17.9323 17.2559 18.0886C17.0996 18.2449 16.8877 18.3327 16.6667 18.3327H3.33333C3.11232 18.3327 2.90036 18.2449 2.74408 18.0886C2.5878 17.9323 2.5 17.7204 2.5 17.4993V9.16602C2.5 8.945 2.5878 8.73304 2.74408 8.57676C2.90036 8.42048 3.11232 8.33268 3.33333 8.33268H4.16667V7.49935C4.16667 6.7333 4.31755 5.97476 4.6107 5.26703C4.90385 4.5593 5.33354 3.91623 5.87521 3.37456C6.41689 2.83288 7.05995 2.4032 7.76768 2.11005C8.47541 1.8169 9.23396 1.66602 10 1.66602C10.766 1.66602 11.5246 1.8169 12.2323 2.11005C12.9401 2.4032 13.5831 2.83288 14.1248 3.37456C14.6665 3.91623 15.0961 4.5593 15.3893 5.26703C15.6824 5.97476 15.8333 6.7333 15.8333 7.49935V8.33268ZM14.1667 8.33268V7.49935C14.1667 6.39428 13.7277 5.33447 12.9463 4.55307C12.1649 3.77167 11.1051 3.33268 10 3.33268C8.89493 3.33268 7.83512 3.77167 7.05372 4.55307C6.27232 5.33447 5.83333 6.39428 5.83333 7.49935V8.33268H14.1667ZM9.16667 11.666V14.9993H10.8333V11.666H9.16667Z" fill="#4D4D4F"/>
</svg>
