<svg width="17" height="18" viewBox="0 0 17 18" fill="none" xmlns="http://www.w3.org/2000/svg">
<path d="M1.66536 17.3332C1.44435 17.3332 1.23239 17.2454 1.07611 17.0891C0.919829 16.9328 0.832031 16.7209 0.832031 16.4998V1.49984C0.832031 1.27882 0.919829 1.06686 1.07611 0.910582C1.23239 0.754301 1.44435 0.666504 1.66536 0.666504H13.332C13.553 0.666504 13.765 0.754301 13.9213 0.910582C14.0776 1.06686 14.1654 1.27882 14.1654 1.49984V3.99984H12.4987V2.33317H2.4987V15.6665H12.4987V13.9998H14.1654V16.4998C14.1654 16.7209 14.0776 16.9328 13.9213 17.0891C13.765 17.2454 13.553 17.3332 13.332 17.3332H1.66536ZM12.4987 12.3332V9.83317H6.66536V8.1665H12.4987V5.6665L16.6654 8.99984L12.4987 12.3332Z" fill="#151414"/>
</svg>
