<svg width="12" height="12" viewBox="0 0 12 12" fill="none" xmlns="http://www.w3.org/2000/svg">
<path d="M1.55458 0.180581C1.97061 0.0321636 2.42023 0.00488452 2.85115 0.101915C3.28208 0.198946 3.67661 0.416301 3.98888 0.728709C4.30115 1.04112 4.51832 1.43574 4.61516 1.86671C4.712 2.29768 4.68452 2.74728 4.53592 3.16325L11.7659 10.3932L10.3512 11.8072L3.12125 4.57791C2.70522 4.72633 2.2556 4.75361 1.82468 4.65658C1.39375 4.55955 0.999224 4.34219 0.686955 4.02979C0.374687 3.71738 0.157509 3.32275 0.0606707 2.89178C-0.0361673 2.46082 -0.00868732 2.01121 0.139916 1.59525L1.63058 3.08658C1.72283 3.18209 1.83317 3.25827 1.95518 3.31068C2.07718 3.36309 2.2084 3.39068 2.34118 3.39183C2.47396 3.39299 2.60564 3.36768 2.72854 3.3174C2.85143 3.26712 2.96308 3.19287 3.05698 3.09898C3.15087 3.00508 3.22512 2.89343 3.2754 2.77053C3.32569 2.64764 3.35099 2.51596 3.34983 2.38318C3.34868 2.2504 3.32109 2.11918 3.26868 1.99718C3.21628 1.87517 3.14009 1.76483 3.04458 1.67258L1.55392 0.179914L1.55458 0.180581ZM8.46591 1.43658L10.5872 0.257914L11.5299 1.20058L10.3512 3.32191L9.17258 3.55791L7.75925 4.97191L6.81592 4.02925L8.22992 2.61525L8.46591 1.43658ZM3.75192 6.62191L5.16592 8.03658L1.86592 11.3366C1.68394 11.5169 1.43973 11.6204 1.18364 11.6259C0.927546 11.6314 0.679107 11.5385 0.489552 11.3662C0.299997 11.1939 0.183781 10.9554 0.16487 10.7C0.14596 10.4445 0.225796 10.1916 0.387916 9.99325L0.452583 9.92191L3.75258 6.62191H3.75192Z" fill="white"/>
</svg>
