<svg width="14" height="14" viewBox="0 0 14 14" fill="none" xmlns="http://www.w3.org/2000/svg">
<path d="M3.66536 10.332H10.332V13.6654H3.66536V10.332ZM11.6654 12.332V8.9987H2.33203V12.332H0.998698C0.821887 12.332 0.652318 12.2618 0.527293 12.1368C0.402269 12.0117 0.332031 11.8422 0.332031 11.6654V4.9987C0.332031 4.82189 0.402269 4.65232 0.527293 4.52729C0.652318 4.40227 0.821887 4.33203 0.998698 4.33203H12.9987C13.1755 4.33203 13.3451 4.40227 13.4701 4.52729C13.5951 4.65232 13.6654 4.82189 13.6654 4.9987V11.6654C13.6654 11.8422 13.5951 12.0117 13.4701 12.1368C13.3451 12.2618 13.1755 12.332 12.9987 12.332H11.6654ZM2.33203 5.66536V6.9987H4.33203V5.66536H2.33203ZM3.66536 0.332031H10.332C10.5088 0.332031 10.6784 0.402269 10.8034 0.527293C10.9285 0.652318 10.9987 0.821887 10.9987 0.998698V2.9987H2.9987V0.998698C2.9987 0.821887 3.06894 0.652318 3.19396 0.527293C3.31898 0.402269 3.48855 0.332031 3.66536 0.332031Z" fill="#F04935"/>
</svg>
