<svg width="16" height="16" viewBox="0 0 16 16" fill="none" xmlns="http://www.w3.org/2000/svg">
<path d="M12.3567 13.0434C11.147 14.0916 9.59937 14.6676 7.9987 14.6654C4.3167 14.6654 1.33203 11.6807 1.33203 7.9987C1.33203 4.3167 4.3167 1.33203 7.9987 1.33203C11.6807 1.33203 14.6654 4.3167 14.6654 7.9987C14.6654 9.4227 14.2187 10.7427 13.4587 11.8254L11.332 7.9987H13.332C13.3319 6.7695 12.9072 5.57807 12.1298 4.62596C11.3524 3.67384 10.2699 3.01949 9.06559 2.7736C7.86124 2.52771 6.60892 2.70538 5.52048 3.27654C4.43205 3.84771 3.57431 4.77731 3.09238 5.90809C2.61045 7.03887 2.5339 8.3014 2.87569 9.48212C3.21748 10.6628 3.95663 11.6893 4.96809 12.3877C5.97955 13.0862 7.20123 13.4139 8.42646 13.3153C9.6517 13.2167 10.8053 12.6979 11.692 11.8467L12.3567 13.0434Z" fill="#E0293B"/>
</svg>
