<svg width="14" height="14" viewBox="0 0 14 14" fill="none" xmlns="http://www.w3.org/2000/svg">
<path d="M11.3606 12.0473C10.1509 13.0955 8.60328 13.6715 7.0026 13.6693C3.3206 13.6693 0.335938 10.6846 0.335938 7.0026C0.335938 3.3206 3.3206 0.335938 7.0026 0.335938C10.6846 0.335938 13.6693 3.3206 13.6693 7.0026C13.6693 8.4266 13.2226 9.7466 12.4626 10.8293L10.3359 7.0026H12.3359C12.3358 5.77341 11.9111 4.58198 11.1337 3.62986C10.3563 2.67775 9.27384 2.0234 8.06949 1.77751C6.86514 1.53162 5.61283 1.70928 4.52439 2.28045C3.43595 2.85161 2.57822 3.78121 2.09629 4.91199C1.61435 6.04277 1.53781 7.30531 1.8796 8.48603C2.22139 9.66675 2.96053 10.6932 3.97199 11.3916C4.98345 12.0901 6.20513 12.4178 7.43037 12.3192C8.6556 12.2206 9.80917 11.7018 10.6959 10.8506L11.3606 12.0473Z" fill="#E0293B"/>
</svg>
