<svg width="14" height="14" viewBox="0 0 14 14" fill="none" xmlns="http://www.w3.org/2000/svg">
<path d="M11.5 12.25H12.25V3.121L10.879 1.75H10V4.75H3.25V1.75H1.75V12.25H2.5V7H11.5V12.25ZM1 0.25H11.5L13.5303 2.28025C13.6709 2.42087 13.75 2.6116 13.75 2.8105V13C13.75 13.1989 13.671 13.3897 13.5303 13.5303C13.3897 13.671 13.1989 13.75 13 13.75H1C0.801088 13.75 0.610322 13.671 0.46967 13.5303C0.329018 13.3897 0.25 13.1989 0.25 13V1C0.25 0.801088 0.329018 0.610322 0.46967 0.46967C0.610322 0.329018 0.801088 0.25 1 0.25ZM4 8.5V12.25H10V8.5H4Z" fill="white"/>
</svg>
