<svg width="16" height="16" viewBox="0 0 16 16" fill="none" xmlns="http://www.w3.org/2000/svg">
<path d="M12 12.6667H12.6667V4.552L11.448 3.33333H10.6667V6H4.66667V3.33333H3.33333V12.6667H4V8H12V12.6667ZM2.66667 2H12L13.8047 3.80467C13.9297 3.92966 14 4.0992 14 4.276V13.3333C14 13.5101 13.9298 13.6797 13.8047 13.8047C13.6797 13.9298 13.5101 14 13.3333 14H2.66667C2.48986 14 2.32029 13.9298 2.19526 13.8047C2.07024 13.6797 2 13.5101 2 13.3333V2.66667C2 2.48986 2.07024 2.32029 2.19526 2.19526C2.32029 2.07024 2.48986 2 2.66667 2ZM5.33333 9.33333V12.6667H10.6667V9.33333H5.33333Z" fill="white"/>
</svg>
