<svg width="18" height="18" viewBox="0 0 18 18" fill="none" xmlns="http://www.w3.org/2000/svg">
<path d="M14.0271 12.8473L17.5963 16.4157L16.4171 17.5948L12.8488 14.0257C11.5211 15.09 9.86964 15.6689 8.16797 15.6665C4.02797 15.6665 0.667969 12.3065 0.667969 8.1665C0.667969 4.0265 4.02797 0.666504 8.16797 0.666504C12.308 0.666504 15.668 4.0265 15.668 8.1665C15.6704 9.86817 15.0915 11.5196 14.0271 12.8473ZM12.3555 12.229C13.4131 11.1414 14.0037 9.68353 14.0013 8.1665C14.0013 4.94317 11.3905 2.33317 8.16797 2.33317C4.94464 2.33317 2.33464 4.94317 2.33464 8.1665C2.33464 11.389 4.94464 13.9998 8.16797 13.9998C9.68499 14.0022 11.1429 13.4116 12.2305 12.354L12.3555 12.229Z" fill="#4D4D4F"/>
</svg>
