<svg width="40" height="40" viewBox="0 0 40 40" fill="none" xmlns="http://www.w3.org/2000/svg">
<path d="M18.569 1.46546C19.3538 0.661816 20.6462 0.661817 21.431 1.46546L25.2184 5.34424C25.6006 5.73558 26.1263 5.95334 26.6732 5.94683L32.0941 5.88226C33.2172 5.86888 34.1311 6.7828 34.1177 7.90594L34.0532 13.3268C34.0467 13.8737 34.2644 14.3994 34.6558 14.7816L38.5345 18.569C39.3382 19.3538 39.3382 20.6462 38.5345 21.431L34.6558 25.2184C34.2644 25.6006 34.0467 26.1263 34.0532 26.6732L34.1177 32.0941C34.1311 33.2172 33.2172 34.1311 32.0941 34.1177L26.6732 34.0532C26.1263 34.0467 25.6006 34.2644 25.2184 34.6558L21.431 38.5345C20.6462 39.3382 19.3538 39.3382 18.569 38.5345L14.7816 34.6558C14.3994 34.2644 13.8737 34.0467 13.3268 34.0532L7.90594 34.1177C6.7828 34.1311 5.86888 33.2172 5.88226 32.0941L5.94683 26.6732C5.95334 26.1263 5.73558 25.6006 5.34424 25.2184L1.46546 21.431C0.661816 20.6462 0.661817 19.3538 1.46546 18.569L5.34424 14.7816C5.73558 14.3994 5.95334 13.8737 5.94683 13.3268L5.88226 7.90594C5.86888 6.7828 6.7828 5.86888 7.90594 5.88226L13.3268 5.94683C13.8737 5.95334 14.3994 5.73558 14.7816 5.34424L18.569 1.46546Z" fill="#FEA900"/>
<g clip-path="url(#clip0_995_111162)">
<path d="M24.168 26.6667H15.8346V27.5C15.8346 27.721 15.7468 27.933 15.5906 28.0893C15.4343 28.2455 15.2223 28.3333 15.0013 28.3333H14.168C13.947 28.3333 13.735 28.2455 13.5787 28.0893C13.4224 27.933 13.3346 27.721 13.3346 27.5V26.6667H12.5013V20H11.668V16.6667H12.5013V14.1667C12.5013 13.7246 12.6769 13.3007 12.9895 12.9882C13.302 12.6756 13.7259 12.5 14.168 12.5H25.8346C26.2767 12.5 26.7006 12.6756 27.0131 12.9882C27.3257 13.3007 27.5013 13.7246 27.5013 14.1667V16.6667H28.3346V20H27.5013V26.6667H26.668V27.5C26.668 27.721 26.5802 27.933 26.4239 28.0893C26.2676 28.2455 26.0556 28.3333 25.8346 28.3333H25.0013C24.7803 28.3333 24.5683 28.2455 24.412 28.0893C24.2558 27.933 24.168 27.721 24.168 27.5V26.6667ZM14.168 14.1667V21.6667H25.8346V14.1667H14.168ZM14.168 23.3333V25H17.5013V23.3333H14.168ZM22.5013 23.3333V25H25.8346V23.3333H22.5013Z" fill="#151414"/>
</g>
<defs>
<clipPath id="clip0_995_111162">
<rect width="20" height="20" fill="white" transform="translate(10 10)"/>
</clipPath>
</defs>
</svg>
