<svg width="22" height="20" viewBox="0 0 22 20" fill="none" xmlns="http://www.w3.org/2000/svg">
<path d="M10.7712 20C5.09624 20 0.496094 15.523 0.496094 10C0.496094 4.477 5.09624 0 10.7712 0C16.4461 0 21.0462 4.477 21.0462 10C21.0462 15.523 16.4461 20 10.7712 20ZM10.7712 18C12.9513 18 15.0421 17.1571 16.5836 15.6569C18.1252 14.1566 18.9912 12.1217 18.9912 10C18.9912 7.87827 18.1252 5.84344 16.5836 4.34315C15.0421 2.84285 12.9513 2 10.7712 2C8.59107 2 6.50026 2.84285 4.9587 4.34315C3.41715 5.84344 2.55111 7.87827 2.55111 10C2.55111 12.1217 3.41715 14.1566 4.9587 15.6569C6.50026 17.1571 8.59107 18 10.7712 18ZM9.74365 5H11.7987V7H9.74365V5ZM9.74365 9H11.7987V15H9.74365V9Z" fill="#E0293B"/>
</svg>
