<svg width="14" height="14" viewBox="0 0 14 14" fill="none" xmlns="http://www.w3.org/2000/svg">
<path d="M11.0194 10.078L13.8747 12.9327L12.9314 13.876L10.0767 11.0207C9.01452 11.8722 7.69337 12.3353 6.33203 12.3334C3.02003 12.3334 0.332031 9.64537 0.332031 6.33337C0.332031 3.02137 3.02003 0.333374 6.33203 0.333374C9.64403 0.333374 12.332 3.02137 12.332 6.33337C12.334 7.69471 11.8708 9.01587 11.0194 10.078ZM9.68203 9.58337C10.5281 8.7133 11.0006 7.54699 10.9987 6.33337C10.9987 3.75471 8.91003 1.66671 6.33203 1.66671C3.75336 1.66671 1.66536 3.75471 1.66536 6.33337C1.66536 8.91137 3.75336 11 6.33203 11C7.54565 11.002 8.71196 10.5294 9.58203 9.68337L9.68203 9.58337Z" fill="white"/>
</svg>
