<svg width="14" height="14" viewBox="0 0 14 14" fill="none" xmlns="http://www.w3.org/2000/svg">
<path d="M7.0026 13.6668C3.3206 13.6668 0.335938 10.6822 0.335938 7.00016C0.335938 3.31816 3.3206 0.333496 7.0026 0.333496C10.6846 0.333496 13.6693 3.31816 13.6693 7.00016C13.6693 10.6822 10.6846 13.6668 7.0026 13.6668ZM7.0026 12.3335C8.41709 12.3335 9.77365 11.7716 10.7738 10.7714C11.774 9.77121 12.3359 8.41465 12.3359 7.00016C12.3359 5.58567 11.774 4.22912 10.7738 3.22893C9.77365 2.22873 8.41709 1.66683 7.0026 1.66683C5.58812 1.66683 4.23156 2.22873 3.23137 3.22893C2.23117 4.22912 1.66927 5.58567 1.66927 7.00016C1.66927 8.41465 2.23117 9.77121 3.23137 10.7714C4.23156 11.7716 5.58812 12.3335 7.0026 12.3335V12.3335ZM7.0026 6.0575L8.88794 4.1715L9.83127 5.11483L7.94527 7.00016L9.83127 8.8855L8.88794 9.82883L7.0026 7.94283L5.11727 9.82883L4.17394 8.8855L6.05994 7.00016L4.17394 5.11483L5.11727 4.1715L7.0026 6.0575Z" fill="white"/>
</svg>
